<svg width="80" height="80" viewBox="0 0 25 25" style="color:#ffbd39" xmlns="http://www.w3.org/2000/svg" class="h-full w-full">

<!-- Skills	-->
	<g id="html">
		<path fill-rule="nonzero" clip-rule="nonzero" d="M3 1.5C2.86193 1.5 2.75 1.61193 2.75 1.75V11.3003C2.75 11.3896 2.79769 11.4722 2.87509 11.5168L7.73381 14.3194C7.80942 14.363 7.90231 14.364 7.97886 14.3221L13.1201 11.5048C13.2002 11.4609 13.25 11.3769 13.25 11.2856V1.75C13.25 1.61193 13.1381 1.5 13 1.5H3ZM1.25 1.75C1.25 0.783502 2.0335 0 3 0H13C13.9665 0 14.75 0.783503 14.75 1.75V11.2856C14.75 11.9248 14.4015 12.5131 13.841 12.8203L8.69968 15.6375C8.16383 15.9311 7.51363 15.924 6.98434 15.6187L2.12562 12.8162C1.58382 12.5037 1.25 11.9258 1.25 11.3003V1.75ZM5 4.25C5 3.83579 5.33579 3.5 5.75 3.5H10.3654C10.7796 3.5 11.1154 3.83579 11.1154 4.25C11.1154 4.66421 10.7796 5 10.3654 5H6.5V6.71154H10.3654C10.7796 6.71154 11.1154 7.04732 11.1154 7.46154V10.3462C11.1154 10.6302 10.9549 10.8899 10.7008 11.017L8.3931 12.1708C8.18196 12.2764 7.93343 12.2764 7.72228 12.1708L5.41459 11.017C5.1605 10.8899 5 10.6302 5 10.3462V9.76923C5 9.35502 5.33579 9.01923 5.75 9.01923C6.16421 9.01923 6.5 9.35502 6.5 9.76923V9.88263L8.05769 10.6615L9.61539 9.88263V8.21154H5.75C5.33579 8.21154 5 7.87575 5 7.46154V4.25Z" fill="#ffbd39"/>
	</g>

	<g id="css">
		<path fill-rule="nonzero" clip-rule="nonzero" d="M3 1.60001C2.86193 1.60001 2.75 1.71193 2.75 1.85001V11.4003C2.75 11.4896 2.79769 11.5722 2.87509 11.6168L7.73381 14.4194C7.80942 14.463 7.90231 14.464 7.97886 14.4221L13.1201 11.6048C13.2002 11.5609 13.25 11.4769 13.25 11.3856V1.85001C13.25 1.71193 13.1381 1.60001 13 1.60001H3ZM1.25 1.85001C1.25 0.883508 2.0335 0.100006 3 0.100006H13C13.9665 0.100006 14.75 0.883509 14.75 1.85001V11.3856C14.75 12.0248 14.4015 12.6131 13.841 12.9203L8.69968 15.7375C8.16383 16.0311 7.51363 16.024 6.98434 15.7187L2.12562 12.9162C1.58382 12.6037 1.25 12.0258 1.25 11.4003V1.85001ZM5 4.35001C5 3.93579 5.33579 3.60001 5.75 3.60001H10.3654C10.7796 3.60001 11.1154 3.93579 11.1154 4.35001V10.4462C11.1154 10.7302 10.9549 10.9899 10.7008 11.117L8.3931 12.2708C8.18196 12.3764 7.93343 12.3764 7.72228 12.2708L5.41459 11.117C5.1605 10.9899 5 10.7302 5 10.4462V9.86924C5 9.45502 5.33579 9.11924 5.75 9.11924C6.16421 9.11924 6.5 9.45502 6.5 9.86924V9.98263L8.05769 10.7615L9.61539 9.98263V8.31154H7C6.58579 8.31154 6.25 7.97576 6.25 7.56154C6.25 7.14733 6.58579 6.81154 7 6.81154H9.61539V5.10001H5.75C5.33579 5.10001 5 4.76422 5 4.35001Z" fill="#ffbd39"/>
	</g>

	<g id="styledComponents">
		<path fill="#ffbd39" d="m16.214 6.762l-.075.391c-.116.741-.074.953.244 1.228l.307.254l-.318 1.418c-.19.846-.423 1.555-.571 1.788c-.127.201-.275.497-.307.656c-.053.19-.233.381-.508.55c-.243.138-.72.508-1.058.805c-.27.243-.456.392-.557.456l-.33.261a1.4 1.4 0 0 0-.189.411c-.023.107-.01.178.024.23c.033.05.09.085.168.107a.954.954 0 0 0 .282.023a3 3 0 0 0 .632-.112c.07-.019.125-.037.173-.053c.074-.091.245-.263.548-.562c.804-.793 1.111-1.227.794-1.11c-.117.042-.064-.064.137-.276c.424-.413.667-1.037 1.175-2.994c.402-1.545.402-1.567.698-1.567c.139 0 .532.024.532.024V6.762h-.902zm3.839 3.165c-.064 0-.17.096-.233.202c-.116.19.021.306 1.767 1.396c1.037.657 1.873 1.217 1.852 1.26c-.021.031-.868.582-1.883 1.217c-1.842 1.142-1.852 1.153-1.683 1.386c.212.275 0 .37 2.391-1.122L24 13.155v-.836l-1.937-1.196c-1.047-.656-1.957-1.185-2.01-1.196zm-16.085.117c-.053 0-.963.54-2.01 1.185L0 12.425v.836l1.947 1.217c1.08.666 1.99 1.217 2.032 1.217c.042 0 .127-.096.212-.212c.127-.201.02-.286-1.768-1.418C.72 12.996.54 12.848.71 12.732c.106-.074.91-.572 1.778-1.111c1.979-1.217 1.873-1.133 1.714-1.387c-.063-.105-.17-.2-.233-.19zm8.684.023c-.292-.002-.92.443-2.8 1.978c-.081.193-.088.326-.051.412c.024.059.068.1.129.13c.06.03.138.048.224.055c.171.015.373-.012.536-.044l.11-.025a.386.386 0 0 1 .144-.118c.116-.064.603-.508 1.09-.984c.857-.868 1.058-1.26.709-1.387a.24.24 0 0 0-.09-.017zm2.196.603c-.257.007-.72.305-1.513.938c-.398.323-.65.497-.785.533l-.524.414c-.197.36-.226.583-.174.706a.25.25 0 0 0 .138.134a.644.644 0 0 0 .24.045a2.18 2.18 0 0 0 .58-.085a3.466 3.466 0 0 0 .291-.092l.029-.012l.053-.028c.1-.129.33-.372.618-.652c.91-.878 1.375-1.502 1.28-1.735c-.043-.113-.117-.17-.233-.166zm-2.424 1.08c-.074.008-.24.136-.539.398c-.432.382-.903.602-1.066.504a3.97 3.97 0 0 1-.114.024c-.166.033-.373.06-.558.045a.708.708 0 0 1-.252-.063a.337.337 0 0 1-.168-.17c-.037-.09-.037-.202.005-.345l-.65.534l-1.471 1.217v1.973l4.82-3.797a.41.41 0 0 1 .016-.123c.037-.134.035-.202-.023-.196zm2.074.639c-.073 0-.195.103-.39.31c-.265.283-.682.557-.903.613l-.034.018a2.191 2.191 0 0 1-.11.042c-.06.02-.138.044-.228.068c-.18.049-.404.094-.604.089a.732.732 0 0 1-.275-.054a.344.344 0 0 1-.184-.18c-.058-.139-.035-.334.092-.611L7.61 16.033v1.205h1.868l3.962-3.112c.103-.114.258-.27.467-.465c.56-.519.687-.698.687-.963c0-.206-.023-.31-.096-.31zm.943 1.95l-.339.338c-.19.18-.529.402-.761.497l-.046.02l-.003.005l-.01.01c-.009.007-.013.008-.02.011a3.432 3.432 0 0 1-.282.093a3.058 3.058 0 0 1-.65.115a1.035 1.035 0 0 1-.31-.027a.364.364 0 0 1-.218-.144c-.048-.074-.062-.173-.035-.295a1.11 1.11 0 0 1 .095-.25l-3.197 2.526h4.252l.508-.582c.698-.814 1.016-1.396 1.016-1.894z"/>
	</g>

	<g id="javascript">
		<path fill-rule="nonzero" clip-rule="nonzero" d="M0 1.75C0 0.783501 0.783502 0 1.75 0H14.25C15.2165 0 16 0.783502 16 1.75V3.75C16 4.16421 15.6642 4.5 15.25 4.5C14.8358 4.5 14.5 4.16421 14.5 3.75V1.75C14.5 1.61193 14.3881 1.5 14.25 1.5H1.75C1.61193 1.5 1.5 1.61193 1.5 1.75V14.25C1.5 14.3881 1.61193 14.5 1.75 14.5H15.25C15.6642 14.5 16 14.8358 16 15.25C16 15.6642 15.6642 16 15.25 16H1.75C0.783501 16 0 15.2165 0 14.25V1.75ZM8.25 5.75C8.66421 5.75 9 6.08579 9 6.5V10.5C9 11.5048 8.72399 12.2584 8.15514 12.7324C7.61223 13.1848 6.95384 13.25 6.5 13.25C6.08579 13.25 5.75 12.9142 5.75 12.5C5.75 12.0858 6.08579 11.75 6.5 11.75C6.84617 11.75 7.06277 11.6902 7.19486 11.5801C7.301 11.4916 7.5 11.2452 7.5 10.5V6.5C7.5 6.08579 7.83578 5.75 8.25 5.75ZM11.2757 6.58011C11.6944 6.08164 12.3507 5.75 13.25 5.75C14.0849 5.75 14.7148 6.03567 15.1394 6.48481C15.4239 6.78583 15.4105 7.26052 15.1095 7.54505C14.8085 7.82958 14.3338 7.81621 14.0493 7.51519C13.9394 7.39898 13.7204 7.25 13.25 7.25C12.7493 7.25 12.5306 7.41836 12.4243 7.54489C12.2934 7.70065 12.25 7.896 12.25 8C12.25 8.104 12.2934 8.29935 12.4243 8.45511C12.5306 8.58164 12.7493 8.75 13.25 8.75C13.3257 8.75 13.3988 8.76121 13.4676 8.78207C14.1307 8.87646 14.6319 9.17251 14.9743 9.58011C15.3684 10.0493 15.5 10.604 15.5 11C15.5 11.396 15.3684 11.9507 14.9743 12.4199C14.5556 12.9184 13.8993 13.25 13 13.25C12.1651 13.25 11.5352 12.9643 11.1106 12.5152C10.8261 12.2142 10.8395 11.7395 11.1405 11.4549C11.4415 11.1704 11.9162 11.1838 12.2007 11.4848C12.3106 11.601 12.5296 11.75 13 11.75C13.5007 11.75 13.7194 11.5816 13.8257 11.4551C13.9566 11.2993 14 11.104 14 11C14 10.896 13.9566 10.7007 13.8257 10.5449C13.7194 10.4184 13.5007 10.25 13 10.25C12.9243 10.25 12.8512 10.2388 12.7824 10.2179C12.1193 10.1235 11.6181 9.82749 11.2757 9.41989C10.8816 8.95065 10.75 8.396 10.75 8C10.75 7.604 10.8816 7.04935 11.2757 6.58011Z" fill="#ffbd39"/>
	</g>

	<g id="typescript">
		<path fill="#ffbd39" d="M0 1.75C0 .784.784 0 1.75 0h12.5C15.216 0 16 .784 16 1.75v2a.75.75 0 0 1-1.5 0v-2a.25.25 0 0 0-.25-.25H1.75a.25.25 0 0 0-.25.25v12.5c0 .138.112.25.25.25h13.5a.75.75 0 0 1 0 1.5H1.75A1.75 1.75 0 0 1 0 14.25V1.75ZM4.75 6.5a.75.75 0 0 1 .75-.75h3.75a.75.75 0 0 1 0 1.5h-1v5.25a.75.75 0 0 1-1.5 0V7.25H5.5a.75.75 0 0 1-.75-.75Zm6.526.08c.418-.498 1.075-.83 1.974-.83c.835 0 1.465.286 1.89.735a.75.75 0 0 1-1.09 1.03c-.11-.116-.33-.265-.8-.265c-.5 0-.72.168-.826.295A.767.767 0 0 0 12.25 8c0 .104.043.3.174.455c.107.127.325.295.826.295c.076 0 .149.011.218.032c.663.094 1.164.39 1.506.798c.394.47.526 1.024.526 1.42c0 .396-.132.95-.526 1.42c-.418.498-1.075.83-1.974.83c-.835 0-1.465-.286-1.89-.735a.75.75 0 0 1 1.09-1.03c.11.116.33.265.8.265c.5 0 .72-.168.826-.295A.767.767 0 0 0 14 11c0-.104-.043-.3-.174-.455c-.107-.127-.325-.295-.826-.295a.748.748 0 0 1-.218-.032c-.663-.095-1.164-.39-1.506-.798A2.263 2.263 0 0 1 10.75 8c0-.396.132-.95.526-1.42Z"/>
	</g>

	<g id="react">
	<path fill="#ffbd39" d="M4.85 2.372c-.251.145-.515.544-.546 1.416a.75.75 0 0 1-1.499-.053c.038-1.068.376-2.131 1.295-2.662c.922-.532 2.015-.29 2.961.214a.75.75 0 0 1-.706 1.324c-.773-.413-1.253-.384-1.505-.24Zm4.021 1.3a.75.75 0 0 1 1.056.1a16.46 16.46 0 0 1 1.57 2.268c1.04 1.802 1.681 3.648 1.854 5.196c.086.773.06 1.509-.12 2.14c-.183.635-.537 1.21-1.131 1.553c-.719.415-1.55.357-2.309.08c-.762-.278-1.547-.803-2.295-1.486a.75.75 0 0 1 1.011-1.108c.66.602 1.279.996 1.797 1.184c.522.19.85.145 1.046.031c.164-.095.33-.288.438-.667c.11-.384.145-.91.072-1.56c-.145-1.299-.7-2.947-1.663-4.613a14.994 14.994 0 0 0-1.425-2.06a.75.75 0 0 1 .1-1.056Z"/><path fill="#ffbd39" d="M14.5 8.206c0-.29-.214-.719-.953-1.18a.75.75 0 0 1 .795-1.273C15.248 6.32 16 7.144 16 8.206c0 1.064-.756 1.89-1.666 2.457a.75.75 0 0 1-.793-1.273c.744-.464.959-.894.959-1.184Zm-3.137 2.832a.75.75 0 0 1-.614.865A16.56 16.56 0 0 1 8 12.127c-2.08 0-4-.367-5.427-.992c-.713-.311-1.336-.702-1.792-1.174C.32 9.486 0 8.891 0 8.206c0-.83.466-1.52 1.085-2.04c.622-.521 1.47-.938 2.435-1.244a.75.75 0 0 1 .454 1.43c-.85.27-1.502.609-1.924.964c-.426.356-.55.663-.55.89c0 .19.085.43.359.713c.278.287.716.58 1.315.842c1.197.524 2.902.866 4.826.866c.885 0 1.727-.072 2.498-.203a.75.75 0 0 1 .865.614Z"/><path fill="#ffbd39" d="M4.872 13.63c.25.145.729.174 1.499-.235a.75.75 0 1 1 .704 1.325c-.944.501-2.034.74-2.953.21c-.922-.533-1.26-1.6-1.295-2.672a.75.75 0 0 1 1.499-.05c.03.875.294 1.277.546 1.422Zm-.884-4.133a.75.75 0 0 1-.442-.964c.302-.815.697-1.657 1.18-2.493c1.04-1.802 2.318-3.28 3.572-4.204c.626-.461 1.276-.806 1.913-.965c.641-.16 1.317-.141 1.91.202c.72.415 1.084 1.163 1.224 1.96c.141.799.078 1.741-.14 2.73a.75.75 0 1 1-1.464-.321c.191-.872.223-1.606.127-2.15c-.096-.546-.3-.807-.496-.92c-.164-.095-.415-.142-.797-.046c-.388.097-.86.33-1.387.718c-1.052.774-2.202 2.08-3.163 3.746a14.925 14.925 0 0 0-1.073 2.265a.75.75 0 0 1-.964.442Z"/><path fill="#ffbd39" d="M9.46 8.066a1.36 1.36 0 1 1-2.72 0a1.36 1.36 0 0 1 2.72 0Z"/>
	</g>

	<!-- Socials -->
	<g id="instagram">
		<path fill-rule="evenodd" clip-rule="evenodd" d="M12 18C15.3137 18 18 15.3137 18 12C18 8.68629 15.3137 6 12 6C8.68629 6 6 8.68629 6 12C6 15.3137 8.68629 18 12 18ZM12 16C14.2091 16 16 14.2091 16 12C16 9.79086 14.2091 8 12 8C9.79086 8 8 9.79086 8 12C8 14.2091 9.79086 16 12 16Z" fill="#ffbd39"/>
<path d="M18 5C17.4477 5 17 5.44772 17 6C17 6.55228 17.4477 7 18 7C18.5523 7 19 6.55228 19 6C19 5.44772 18.5523 5 18 5Z" fill="#ffbd39"/>
<path fill-rule="evenodd" clip-rule="evenodd" d="M1.65396 4.27606C1 5.55953 1 7.23969 1 10.6V13.4C1 16.7603 1 18.4405 1.65396 19.7239C2.2292 20.8529 3.14708 21.7708 4.27606 22.346C5.55953 23 7.23969 23 10.6 23H13.4C16.7603 23 18.4405 23 19.7239 22.346C20.8529 21.7708 21.7708 20.8529 22.346 19.7239C23 18.4405 23 16.7603 23 13.4V10.6C23 7.23969 23 5.55953 22.346 4.27606C21.7708 3.14708 20.8529 2.2292 19.7239 1.65396C18.4405 1 16.7603 1 13.4 1H10.6C7.23969 1 5.55953 1 4.27606 1.65396C3.14708 2.2292 2.2292 3.14708 1.65396 4.27606ZM13.4 3H10.6C8.88684 3 7.72225 3.00156 6.82208 3.0751C5.94524 3.14674 5.49684 3.27659 5.18404 3.43597C4.43139 3.81947 3.81947 4.43139 3.43597 5.18404C3.27659 5.49684 3.14674 5.94524 3.0751 6.82208C3.00156 7.72225 3 8.88684 3 10.6V13.4C3 15.1132 3.00156 16.2777 3.0751 17.1779C3.14674 18.0548 3.27659 18.5032 3.43597 18.816C3.81947 19.5686 4.43139 20.1805 5.18404 20.564C5.49684 20.7234 5.94524 20.8533 6.82208 20.9249C7.72225 20.9984 8.88684 21 10.6 21H13.4C15.1132 21 16.2777 20.9984 17.1779 20.9249C18.0548 20.8533 18.5032 20.7234 18.816 20.564C19.5686 20.1805 20.1805 19.5686 20.564 18.816C20.7234 18.5032 20.8533 18.0548 20.9249 17.1779C20.9984 16.2777 21 15.1132 21 13.4V10.6C21 8.88684 20.9984 7.72225 20.9249 6.82208C20.8533 5.94524 20.7234 5.49684 20.564 5.18404C20.1805 4.43139 19.5686 3.81947 18.816 3.43597C18.5032 3.27659 18.0548 3.14674 17.1779 3.0751C16.2777 3.00156 15.1132 3 13.4 3Z" fill="#ffbd39"/>

	</g>

	<g id="github">
<path fill="#ffbd39" d="M3.773 16.16c-.82-1.06-1.063-1.406-1.25-1.745l-.039-.073a10.42 10.42 0 0 1-.122-.226a3.352 3.352 0 0 1-.14-.3c-.174-.432-.207-.813.07-1.165c.485-.62 1.273-.445 1.937.123c.428.365 1.066 1.02 1.455 1.486c.255.305.72.621 1.06.734a.83.83 0 0 0 .1.027l.178-.56a7.352 7.352 0 0 1-1.869-.965c-1.3-.936-2.43-2.773-2.333-4.174c.06-.885.36-1.753.89-2.596a12.72 12.72 0 0 1-.073-1.238c0-.489.16-1.02.467-1.603a.661.661 0 0 1 .566-.352a5.853 5.853 0 0 1 1.598.17c.455.115.936.317 1.445.605c.762-.158 1.5-.238 2.216-.238c.717 0 1.463.08 2.239.239c.662-.371 1.244-.623 1.752-.755c.66-.171 1.254-.12 1.743.182a.659.659 0 0 1 .175.158c.3.388.466.903.52 1.538c.042.484.027.965-.045 1.442c.433.651.715 1.483.854 2.49c.226 1.644-.525 3.337-1.718 4.312c-.556.454-1.32.81-2.294 1.08c.062.216.106.431.132.646c.044.354.075 1.304.096 2.89c1.102-.574 1.957-1.14 2.565-1.695c1.035-.943 1.815-2.281 2.323-3.835c.425-1.3.507-2.397.297-3.606c-.257-1.47-.627-2.669-1.184-3.631c-.652-1.126-1.692-2.19-2.936-2.968c-1.19-.746-3.12-1.245-4.64-1.245c-1.596 0-3.382.517-4.737 1.473c-1.318.93-2.41 2.33-3.043 3.703c-.501 1.088-.707 2.247-.707 3.958c0 1.386.504 3.07 1.098 4.124c.469.832 1.135 1.62 2.114 2.476c.493.432 1.19.863 2.09 1.289v-.423c-1.205-.28-2.163-.864-2.85-1.752Zm-.357-2.922a.197.197 0 0 0 0-.005v.005Zm1.405 2.122c.57.739 1.411 1.192 2.56 1.36a.658.658 0 0 1 .563.65v1.973a.66.66 0 0 1-.913.606c-1.475-.606-2.597-1.24-3.371-1.917c-1.086-.95-1.847-1.852-2.394-2.82C.568 13.971 0 12.072 0 10.445C0 8.56.238 7.22.827 5.942c.724-1.572 1.959-3.154 3.48-4.227C5.894.595 7.947 0 9.806 0c1.76 0 3.933.562 5.345 1.446c1.424.892 2.616 2.111 3.376 3.424c.649 1.119 1.061 2.453 1.341 4.062c.248 1.421.15 2.734-.341 4.235c-.574 1.753-1.467 3.285-2.686 4.397c-.882.804-2.156 1.591-3.827 2.373a.66.66 0 0 1-.942-.588c-.02-2.149-.053-3.434-.097-3.788a3.274 3.274 0 0 0-.297-.989a.655.655 0 0 1 .46-.919c1.144-.243 1.968-.58 2.47-.99c.855-.699 1.41-1.95 1.249-3.12c-.128-.926-.387-1.626-.764-2.108a.653.653 0 0 1-.127-.53c.09-.45.115-.903.075-1.362c-.028-.326-.092-.572-.183-.742c-.145-.048-.341-.046-.606.023c-.43.111-.98.36-1.64.745a.664.664 0 0 1-.482.075a10.036 10.036 0 0 0-2.202-.261c-.693 0-1.42.086-2.179.26a.664.664 0 0 1-.492-.079c-.49-.296-.93-.492-1.314-.588c-.27-.068-.55-.11-.837-.126c-.101.251-.15.464-.15.638c0 .342.03.786.09 1.328a.653.653 0 0 1-.108.437c-.488.724-.752 1.441-.801 2.159c-.062.885.826 2.327 1.79 3.021c.595.429 1.292.75 2.093.962a.656.656 0 0 1 .46.831l-.503 1.587a.658.658 0 0 1-.394.416c-.401.152-.83.152-1.26.01c-.572-.19-1.244-.647-1.657-1.141a10.733 10.733 0 0 0-.354-.4c.136.18.302.396.508.662Z"/>	
</g>

	<g id="linkedIn">
	<path d="M24 0v24H0V0h24ZM12.593 23.258l-.011.002l-.071.035l-.02.004l-.014-.004l-.071-.035c-.01-.004-.019-.001-.024.005l-.004.01l-.017.428l.005.02l.01.013l.104.074l.015.004l.012-.004l.104-.074l.012-.016l.004-.017l-.017-.427c-.002-.01-.009-.017-.017-.018Zm.265-.113l-.013.002l-.185.093l-.01.01l-.003.011l.018.43l.005.012l.008.007l.201.093c.012.004.023 0 .029-.008l.004-.014l-.034-.614c-.003-.012-.01-.02-.02-.022Zm-.715.002a.023.023 0 0 0-.027.006l-.006.014l-.034.614c0 .012.007.02.017.024l.015-.002l.201-.093l.01-.008l.004-.011l.017-.43l-.003-.012l-.01-.01l-.184-.092Z"/><path fill="#ffbd39" d="M18 3a3 3 0 0 1 3 3v12a3 3 0 0 1-3 3H6a3 3 0 0 1-3-3V6a3 3 0 0 1 3-3h12Zm0 2H6a1 1 0 0 0-1 1v12a1 1 0 0 0 1 1h12a1 1 0 0 0 1-1V6a1 1 0 0 0-1-1ZM8 10a1 1 0 0 1 .993.883L9 11v5a1 1 0 0 1-1.993.117L7 16v-5a1 1 0 0 1 1-1Zm3-1a1 1 0 0 1 .984.821a5.82 5.82 0 0 1 .623-.313c.667-.285 1.666-.442 2.568-.159c.473.15.948.43 1.3.907c.315.425.485.942.519 1.523L17 12v4a1 1 0 0 1-1.993.117L15 16v-4c0-.33-.08-.484-.132-.555a.548.548 0 0 0-.293-.188c-.348-.11-.849-.052-1.182.09c-.5.214-.958.55-1.27.861L12 12.34V16a1 1 0 0 1-1.993.117L10 16v-6a1 1 0 0 1 1-1ZM8 7a1 1 0 1 1 0 2a1 1 0 0 1 0-2Z"/>
	</g>

	<g id="mail">
<path fill="#ffbd39" d="M32 6H4a2 2 0 0 0-2 2v20a2 2 0 0 0 2 2h28a2 2 0 0 0 2-2V8a2 2 0 0 0-2-2Zm-1.54 22H5.66l7-7.24l-1.44-1.39L4 26.84V9.52l12.43 12.37a2 2 0 0 0 2.82 0L32 9.21v17.5l-7.36-7.36l-1.41 1.41ZM5.31 8h25.07L17.84 20.47Z" class="clr-i-outline clr-i-outline-path-1"/><path fill="none" d="M0 0h36v36H0z"/>
</g>
</svg>
